<?xml version="1.0" encoding="UTF-8" standalone="no"?>
<!DOCTYPE svg PUBLIC "-//W3C//DTD SVG 1.1//EN" "http://www.w3.org/Graphics/SVG/1.1/DTD/svg11.dtd">
<svg width="100%" height="100%" viewBox="0 0 408 352" version="1.1" xmlns="http://www.w3.org/2000/svg" xmlns:xlink="http://www.w3.org/1999/xlink" xml:space="preserve" xmlns:serif="http://www.serif.com/" style="fill-rule:evenodd;clip-rule:evenodd;stroke-linecap:round;stroke-linejoin:round;stroke-miterlimit:1.5;">
    <g transform="matrix(1,0,0,1,0.00790339,-0.00146402)">
        <g transform="matrix(1,0,0,1,-8168.78,-1958.66)">
            <g transform="matrix(0.632859,0.358856,-0.358855,0.632861,5699.88,656.023)">
                <path d="M4219.94,213.23L4216.45,211.214L4216.45,206.697L4160.74,174.534L4160.74,100.108L4160.11,99.745L4160.11,98.878L4229.23,58.973L4298.35,98.878L4298.35,168.769L4219.94,213.23Z" style="fill:rgb(198,146,13);stroke:rgb(246,246,246);stroke-width:11px;"/>
            </g>
        </g>
        <g transform="matrix(1,0,0,1,-8168.78,-1958.66)">
            <g transform="matrix(0.632859,0.358856,-0.358855,0.632861,5785.79,606.989)">
                <path d="M4297.99,175.91L4294.34,173.805L4225.23,213.71L4225.23,216.282L4160.74,179.051L4160.74,100.108L4160.11,99.745L4160.11,98.878L4229.23,58.973L4298.35,98.878L4298.35,99.736L4297.99,99.942L4297.99,175.91Z" style="fill:rgb(198,146,13);stroke:rgb(246,246,246);stroke-width:11px;"/>
            </g>
        </g>
        <g transform="matrix(1,0,0,1,-8168.78,-1958.66)">
            <g transform="matrix(0.632859,0.358856,-0.358855,0.632861,5875.4,555.224)">
                <path d="M4160.11,101.45L4164.11,103.762L4233.23,63.857L4233.23,61.285L4298.35,98.878L4298.35,178.688L4229.23,218.593L4164.74,181.363L4164.74,104.711L4160.11,102.037L4160.11,101.45Z" style="fill:rgb(198,146,13);stroke:rgb(246,246,246);stroke-width:11px;"/>
            </g>
        </g>
        <g transform="matrix(1,0,0,1,-8168.78,-1958.66)">
            <g transform="matrix(0.632859,0.358856,-0.358855,0.632861,5877.37,456.286)">
                <path d="M4161.47,99.093L4230.09,59.472L4298.35,98.878L4298.35,178.688L4229.23,218.593L4160.11,178.688L4160.11,98.878L4160.6,98.594L4161.47,99.093Z" style="fill:rgb(198,146,13);stroke:rgb(246,246,246);stroke-width:11px;"/>
            </g>
        </g>
        <g transform="matrix(1,0,0,1,-8168.78,-1958.66)">
            <g transform="matrix(0.632859,0.358856,-0.358855,0.632861,5966.54,507.834)">
                <path d="M4170.37,92.957L4235.48,207.788L4225.23,213.71L4225.23,216.282L4160.74,179.051L4160.74,100.108L4160.11,99.745L4160.11,98.878L4170.37,92.957Z" style="fill:rgb(198,146,13);stroke:rgb(246,246,246);stroke-width:11px;"/>
            </g>
        </g>
        <g transform="matrix(1,0,0,1,-8168.78,-1958.66)">
            <g transform="matrix(0.632859,0.358856,-0.358855,0.632861,5966.54,606.772)">
                <path d="M4170.37,92.957L4235.48,207.788L4225.23,213.71L4225.23,216.282L4160.74,179.051L4160.74,100.108L4160.11,99.745L4160.11,98.878L4170.37,92.957Z" style="fill:rgb(198,146,13);stroke:rgb(246,246,246);stroke-width:11px;"/>
            </g>
        </g>
        <g transform="matrix(1,0,0,1,-8168.78,-1958.66)">
            <g transform="matrix(0.632859,0.358856,-0.358855,0.632861,5782.24,707.872)">
                <path d="M4288.43,93.152L4160.74,165.555L4160.74,100.108L4160.11,99.745L4160.11,98.878L4229.23,58.973L4288.43,93.152Z" style="fill:rgb(198,146,13);stroke:rgb(246,246,246);stroke-width:11px;"/>
            </g>
        </g>
        <g transform="matrix(1,0,0,1,-8168.78,-1958.66)">
            <g transform="matrix(0.632859,0.358856,-0.358855,0.632861,5967.55,407.265)">
                <path d="M4169.17,93.648L4234.28,208.479L4225.23,213.71L4225.23,216.282L4160.74,179.051L4160.74,100.108L4160.11,99.745L4160.11,98.878L4169.17,93.648Z" style="fill:rgb(198,146,13);stroke:rgb(246,246,246);stroke-width:11px;"/>
            </g>
        </g>
        <g transform="matrix(1,0,0,1,-8168.78,-1958.66)">
            <g transform="matrix(0.632859,0.358856,-0.358855,0.632861,5604.13,695.303)">
                <path d="M4298.35,107.39L4166.3,182.263L4160.11,178.688L4160.11,98.878L4160.6,98.594L4161.47,99.093L4230.09,59.472L4242.64,66.715L4242.64,71.232L4298.35,103.395L4298.35,107.39Z" style="fill:rgb(198,146,13);stroke:rgb(246,246,246);stroke-width:11px;"/>
            </g>
        </g>
        <g transform="matrix(1,0,0,1,-8168.78,-1958.66)">
            <g transform="matrix(0.632859,0.358856,-0.358855,0.632861,5872.66,657.14)">
                <path d="M4160.6,98.594L4161.47,99.093L4230.09,59.472L4298.35,98.878L4298.35,167.691L4219,212.686L4160.11,178.688L4160.11,174.846L4160.47,175.052L4160.47,98.672L4160.11,98.878L4160.6,98.594Z" style="fill:rgb(198,146,13);stroke:rgb(246,246,246);stroke-width:11px;"/>
            </g>
        </g>
        <g transform="matrix(1,0,0,1,-8168.78,-1958.66)">
            <g transform="matrix(0.632859,0.358856,-0.358855,0.632861,5963.67,705.886)">
                <path d="M4173.79,90.981L4190.77,120.928C4198.05,133.765 4193.54,150.098 4180.7,157.377L4160.74,168.696L4160.74,100.108L4160.11,99.745L4160.11,98.878L4173.79,90.981Z" style="fill:rgb(198,146,13);stroke:rgb(246,246,246);stroke-width:11px;"/>
            </g>
        </g>
    </g>
</svg>
