<?xml version="1.0" encoding="UTF-8" standalone="no"?>
<!DOCTYPE svg PUBLIC "-//W3C//DTD SVG 1.1//EN" "http://www.w3.org/Graphics/SVG/1.1/DTD/svg11.dtd">
<svg width="100%" height="100%" viewBox="0 0 1286 1114" version="1.1" xmlns="http://www.w3.org/2000/svg" xmlns:xlink="http://www.w3.org/1999/xlink" xml:space="preserve" xmlns:serif="http://www.serif.com/" style="fill-rule:evenodd;clip-rule:evenodd;stroke-linejoin:round;stroke-miterlimit:1.41421;">
    <g transform="matrix(1,0,0,1,-1265.28,-408.425)">
        <g>
            <g transform="matrix(1.62006e-16,2.64577,-2.64577,1.62006e-16,4396.26,-4264.58)">
                <path d="M1976.64,697.443L2187.06,818.93L2187.06,1061.9L1976.64,1183.39L1766.22,1061.9L1766.22,818.93L1976.64,697.443Z" style="fill:rgb(208,157,32);"/>
            </g>
            <g id="_-HOOVER-HONEY-" serif:id="(HOOVER¶HONEY)" transform="matrix(1,0,0,1,-562.448,58.1898)">
                <text x="1946.43px" y="872.462px" style="font-family:'Montserrat-Bold', 'Montserrat';font-weight:700;font-size:230px;fill:rgb(34,49,60);">HOO<tspan x="2515.22px 2683.35px " y="872.462px 872.462px ">VE</tspan>R</text>
                <text x="2039.58px" y="1102.46px" style="font-family:'Montserrat-Bold', 'Montserrat';font-weight:700;font-size:230px;fill:rgb(34,49,60);">HONE<tspan x="2758.1px " y="1102.46px ">Y</tspan></text>
            </g>
            <g id="_-HOOVER-HONEY-1" serif:id="(HOOVER¶HONEY)" transform="matrix(1,0,0,1,-570.151,-209.749)">
                <text x="2078.06px" y="872.462px" style="font-family:'Montserrat-Regular', 'Montserrat';font-size:50px;fill:rgb(34,49,60);">P<tspan x="2111.71px " y="872.462px ">A</tspan>RKER C<tspan x="2337.16px " y="872.462px ">O</tspan>UNT<tspan x="2487.81px " y="872.462px ">Y</tspan> | P<tspan x="2594.16px 2630.01px 2658.76px " y="872.462px 872.462px 872.462px ">ALO</tspan> P<tspan x="2749.21px " y="872.462px ">I</tspan>NT<tspan x="2833.16px " y="872.462px ">O</tspan></text>
            </g>
            <g id="_-HOOVER-HONEY-2" serif:id="(HOOVER¶HONEY)" transform="matrix(1,0,0,1,-558.123,462.028)">
                <text x="2320.55px" y="872.462px" style="font-family:'Montserrat-Regular', 'Montserrat';font-size:55px;fill:rgb(34,49,60);">RA<tspan x="2397.77px " y="872.462px ">W</tspan> P<tspan x="2512.5px " y="872.462px ">U</tspan>RE</text>
                <text x="2297.15px" y="927.462px" style="font-family:'Montserrat-Regular', 'Montserrat';font-size:55px;fill:rgb(34,49,60);">UNFIL<tspan x="2465.67px " y="927.462px ">T</tspan>ERED</text>
            </g>
        </g>
    </g>
</svg>
