<svg xmlns="http://www.w3.org/2000/svg" viewBox="0 0 48 48"><g class="nc-icon-wrapper"><path d="M25,16V40.5A2.5,2.5,0,0,0,27.5,43h0A2.5,2.5,0,0,0,30,40.5V38a2,2,0,0,1,2-2h0a2,2,0,0,1,2,2v6.5A2.5,2.5,0,0,0,36.5,47h0A2.5,2.5,0,0,0,39,44.5v-26Z" fill="#efd358"/> <rect x="32.05" y="-1.05" width="6" height="20" rx="3" ry="3" transform="translate(3.938 27.406) rotate(-45)" fill="#a67c52"/> <path d="M4.5,39.5h0a3.321,3.321,0,0,1,.151-4.839L19,22l3,3L9.339,39.349A3.321,3.321,0,0,1,4.5,39.5Z" fill="#a67c52"/> <rect x="19.322" y="11.678" width="6" height="20" rx="3" ry="3" transform="translate(-8.79 22.134) rotate(-45)" fill="#c19f85"/> <rect x="23.565" y="4.435" width="6" height="26" rx="3" ry="3" transform="translate(-4.548 23.891) rotate(-45)" fill="#a67c52"/> <rect x="27.808" y="0.192" width="6" height="26" rx="3" ry="3" transform="translate(-0.305 25.648) rotate(-45)" fill="#c19f85"/></g></svg>