<?xml version="1.0" encoding="UTF-8" standalone="no"?>
<!DOCTYPE svg PUBLIC "-//W3C//DTD SVG 1.1//EN" "http://www.w3.org/Graphics/SVG/1.1/DTD/svg11.dtd">
<svg width="100%" height="100%" viewBox="0 0 605 433" version="1.1" xmlns="http://www.w3.org/2000/svg" xmlns:xlink="http://www.w3.org/1999/xlink" xml:space="preserve" xmlns:serif="http://www.serif.com/" style="fill-rule:evenodd;clip-rule:evenodd;stroke-linejoin:round;stroke-miterlimit:1.41421;">
    <g transform="matrix(1,0,0,1,-2612.08,-951.482)">
        <g transform="matrix(0.550423,0.218693,-0.218693,0.550423,1712.1,-263.345)">
            <path d="M3118.49,968.046L3219.93,1223.37L3185.69,1243.14L3049.77,1164.66L3049.77,1007.72L3118.49,968.046Z" style="fill:rgb(198,146,13);"/>
        </g>
        <g transform="matrix(0.550423,0.218693,-0.218693,0.550423,1737.52,-91.7538)">
            <path d="M3080.92,989.736L3180.38,1240.07L3049.77,1164.66L3049.77,1007.72L3080.92,989.736Z" style="fill:rgb(198,146,13);"/>
        </g>
        <g transform="matrix(0.550423,0.218693,-0.218693,0.550423,1761.76,79.7033)">
            <path d="M3096.05,1138.64L3049.77,1157.03L3049.77,1022.16L3096.05,1138.64Z" style="fill:rgb(198,146,13);"/>
        </g>
        <g transform="matrix(0.592277,0,0,0.592277,1746.24,545.693)">
            <path d="M2320.94,847.015L2418.28,970.129L2360.33,1115.98L2205.04,1138.72L2107.7,1015.61L2165.65,869.755L2320.94,847.015Z" style="fill:rgb(198,146,13);"/>
        </g>
        <g transform="matrix(0.592277,0,0,0.592277,1746.24,545.693)">
            <path d="M2092.65,1028.97L2189.98,1152.09L2132.03,1297.94L1976.75,1320.68L1879.41,1197.57L1937.36,1051.71L2092.65,1028.97Z" style="fill:rgb(198,146,13);"/>
        </g>
        <g transform="matrix(0.592277,0,0,0.592277,1746.24,545.693)">
            <path d="M2342.5,1414.59L2237.01,1414.59L2150.62,1305.33L2208.57,1159.47L2363.86,1136.73L2461.2,1259.84L2403.25,1405.7L2342.5,1414.59Z" style="fill:rgb(198,146,13);"/>
        </g>
        <g transform="matrix(0.592277,0,0,0.592277,1746.24,545.693)">
            <path d="M2209.57,1414.59L1949.12,1414.59L1978.28,1341.2L2133.57,1318.46L2209.57,1414.59Z" style="fill:rgb(198,146,13);"/>
        </g>
        <g transform="matrix(0.592277,0,0,0.592277,1746.24,545.693)">
            <path d="M1666.5,1414.59L1635.9,1375.9L1693.86,1230.05L1849.14,1207.3L1946.48,1330.42L1913.04,1414.59L1666.5,1414.59Z" style="fill:rgb(198,146,13);"/>
        </g>
        <g transform="matrix(0.592277,0,0,0.592277,1746.24,545.693)">
            <path d="M1640.33,1414.59L1461.88,1414.59L1463.61,1410.23L1618.9,1387.49L1640.33,1414.59Z" style="fill:rgb(198,146,13);"/>
        </g>
    </g>
</svg>
